<?xml version="1.0" standalone="no"?>
<!DOCTYPE svg PUBLIC "-//W3C//DTD SVG 20010904//EN"
 "http://www.w3.org/TR/2001/REC-SVG-20010904/DTD/svg10.dtd">
<svg version="1.0" xmlns="http://www.w3.org/2000/svg"
 width="512.000000pt" height="512.000000pt" viewBox="0 0 512.000000 512.000000"
 preserveAspectRatio="xMidYMid meet">

<g transform="translate(0.000000,512.000000) scale(0.100000,-0.100000)"
fill="#fff" stroke="none">
<path d="M2335 5108 c-646 -65 -1241 -426 -1610 -978 -174 -261 -305 -622
-345 -950 -15 -125 -12 -361 5 -462 108 -615 717 -1483 1695 -2415 201 -191
246 -229 309 -261 71 -35 80 -37 171 -37 91 0 100 2 171 37 63 32 108 70 309
261 635 605 1146 1222 1428 1727 139 250 222 461 263 671 22 113 26 338 9 479
-37 307 -151 636 -307 890 -121 196 -320 421 -499 566 -446 358 -1026 530
-1599 472z m545 -163 c529 -88 1001 -374 1317 -799 211 -283 337 -590 389
-946 24 -171 16 -421 -20 -555 -156 -592 -714 -1355 -1645 -2248 -124 -118
-224 -206 -250 -219 -60 -29 -127 -34 -189 -13 -60 19 -194 139 -491 436 -632
631 -1046 1163 -1281 1644 -146 297 -190 463 -190 710 0 912 645 1727 1546
1954 76 19 236 47 319 55 84 8 404 -4 495 -19z"/>
<path d="M2390 4559 c-373 -43 -694 -192 -964 -449 -243 -232 -404 -521 -478
-863 -19 -88 -22 -132 -22 -322 0 -190 3 -234 22 -321 49 -224 146 -449 269
-624 97 -137 283 -319 417 -409 369 -246 766 -334 1201 -265 55 9 114 22 132
29 52 22 59 92 12 127 -25 19 -27 19 -140 -3 -149 -30 -396 -32 -539 -5 -307
59 -575 200 -795 421 -141 140 -300 373 -269 393 6 4 124 101 261 215 163 135
253 216 257 232 14 54 -48 110 -97 87 -12 -5 -128 -98 -257 -205 l-235 -195
-14 31 c-22 52 -59 209 -72 304 -18 135 -6 383 24 513 127 535 512 948 1030
1104 153 46 250 60 427 60 194 0 300 -17 471 -74 202 -67 382 -172 531 -309
90 -84 124 -96 162 -58 47 47 37 75 -57 164 -329 311 -822 474 -1277 422z"/>
<path d="M2920 3873 c-65 -24 -152 -113 -175 -182 -40 -121 1 -257 100 -333
152 -116 363 -66 453 107 38 74 38 178 -1 257 -34 69 -101 131 -164 152 -58
20 -154 19 -213 -1z m180 -148 c91 -47 104 -174 25 -243 -65 -58 -168 -46
-219 25 -29 40 -32 120 -7 161 42 66 133 92 201 57z"/>
<path d="M3821 3824 c-26 -33 -26 -50 -1 -94 52 -91 120 -232 145 -300 56
-157 76 -270 82 -472 3 -104 3 -188 -1 -188 -4 0 -98 73 -209 162 -111 90
-218 171 -237 180 -44 23 -104 22 -155 -1 -22 -11 -125 -89 -228 -176 -130
-107 -192 -153 -200 -147 -7 5 -148 117 -313 250 -166 132 -312 243 -324 247
-46 15 -119 8 -156 -14 -72 -43 -362 -291 -368 -316 -14 -54 48 -110 97 -88
12 6 92 69 177 140 85 71 162 132 171 135 9 4 27 -1 41 -10 58 -39 1398 -1115
1398 -1123 0 -4 -48 -57 -107 -117 -119 -121 -214 -195 -343 -268 -47 -26 -93
-54 -102 -62 -25 -21 -23 -77 2 -102 28 -28 61 -25 133 11 358 180 664 541
796 937 63 189 75 274 75 517 0 242 -12 327 -75 517 -37 114 -137 320 -179
371 -40 47 -87 52 -119 11z m-45 -1034 c198 -158 238 -194 236 -213 -12 -82
-126 -356 -174 -420 -12 -16 -43 7 -351 254 -186 149 -336 273 -333 276 44 45
355 293 367 293 9 0 123 -86 255 -190z"/>
</g>
</svg>
