<?xml version="1.0" standalone="no"?>
<!DOCTYPE svg PUBLIC "-//W3C//DTD SVG 20010904//EN"
 "http://www.w3.org/TR/2001/REC-SVG-20010904/DTD/svg10.dtd">
<svg version="1.0" xmlns="http://www.w3.org/2000/svg"
 width="454.000000pt" height="304.000000pt" viewBox="0 0 454.000000 304.000000"
 preserveAspectRatio="xMidYMid meet">

<g transform="translate(0.000000,304.000000) scale(0.100000,-0.100000)"
fill="#3d3938" stroke="none">
<path d="M2203 2992 c-39 -12 -61 -39 -79 -97 -13 -41 -25 -60 -41 -66 -30
-11 -39 -37 -57 -157 -8 -54 -24 -123 -36 -152 -11 -29 -17 -57 -13 -61 5 -5
67 -34 138 -65 120 -52 136 -57 209 -58 67 -1 80 2 90 18 6 10 20 30 32 45 15
19 23 47 27 101 4 41 16 100 29 130 17 45 22 79 24 188 l3 132 -27 18 c-14 9
-44 18 -67 20 -112 8 -212 10 -232 4z m205 -39 c43 -53 54 -161 23 -237 -12
-29 -12 -29 -26 -9 -10 14 -43 28 -97 43 -46 12 -109 33 -140 47 l-57 25 24
66 c27 74 39 84 110 93 87 11 137 3 163 -28z m47 17 c-3 -5 -11 -10 -16 -10
-6 0 -7 5 -4 10 3 6 11 10 16 10 6 0 7 -4 4 -10z m25 -20 c0 -5 -5 -10 -11
-10 -5 0 -7 5 -4 10 3 6 8 10 11 10 2 0 4 -4 4 -10z m30 -100 c18 -66 11 -119
-39 -268 -27 -81 -54 -166 -60 -188 -9 -32 -17 -43 -37 -48 -15 -4 -28 -5 -30
-3 -8 8 47 222 87 337 44 132 45 144 20 218 l-18 53 33 -32 c19 -18 39 -49 44
-69z m5 77 c0 -26 -20 -25 -23 2 -3 16 1 22 10 19 7 -3 13 -12 13 -21z m-365
-136 c33 -16 91 -37 128 -47 37 -9 71 -21 76 -25 11 -9 -6 -88 -50 -229 -20
-63 -38 -121 -40 -127 -4 -15 -12 -12 -167 55 -95 40 -108 49 -103 67 29 107
45 181 54 238 9 57 24 97 37 97 2 0 31 -13 65 -29z m250 -114 c0 -12 -17 -93
-37 -179 -31 -132 -40 -158 -56 -158 -31 0 -30 29 6 143 20 62 41 132 47 157
6 25 13 51 15 58 7 20 25 4 25 -21z m46 -258 c-17 -25 -20 -19 -10 19 5 15 10
20 16 14 7 -7 5 -18 -6 -33z"/>
<path d="M2060 2702 c0 -10 9 -18 23 -19 12 -1 54 -12 92 -26 90 -31 125 -39
125 -29 0 4 -30 15 -67 25 -38 10 -92 28 -120 42 -47 21 -53 22 -53 7z"/>
<path d="M24 2093 c6 -28 116 -721 116 -729 0 -2 52 -4 115 -4 63 0 115 3 115
8 0 4 20 122 45 262 25 140 45 260 45 265 2 42 24 -59 61 -278 l44 -258 115 3
115 3 57 360 c32 198 57 368 58 378 0 15 -11 17 -90 17 l-89 0 -5 -32 c-3 -18
-15 -116 -26 -218 -22 -194 -30 -253 -36 -248 -3 3 -84 475 -84 490 0 5 -50 7
-112 6 l-112 -3 -38 -225 c-40 -238 -47 -275 -52 -269 -2 2 -16 115 -32 252
l-28 247 -94 0 -94 0 6 -27z"/>
<path d="M1202 2038 c-11 -46 -51 -209 -87 -363 -36 -154 -68 -288 -71 -297
-5 -16 4 -18 90 -18 107 0 97 -8 117 98 l12 63 81 -3 81 -3 15 -75 16 -75 38
-3 c20 -2 36 -6 34 -10 -2 -4 -37 -59 -79 -122 -123 -185 -179 -306 -179 -385
0 -56 17 -69 79 -63 57 6 155 58 290 154 l86 62 3 -41 c2 -23 8 -47 14 -54 44
-53 138 61 138 167 0 25 3 31 15 26 73 -28 135 -38 206 -34 l77 5 -24 -32
c-29 -38 -31 -71 -6 -84 23 -12 91 18 182 83 36 25 66 41 68 36 4 -11 -73
-127 -184 -277 -56 -75 -107 -132 -155 -170 -454 -366 -583 -483 -603 -550
-10 -32 26 -65 62 -57 92 21 254 176 482 459 l145 179 290 226 c267 209 291
225 303 208 16 -22 46 -23 124 -2 33 8 62 13 64 11 13 -12 -15 -36 -78 -66
-88 -44 -152 -99 -143 -124 18 -44 109 -4 187 82 53 59 55 60 250 138 110 43
198 84 198 91 0 6 -2 12 -4 12 -3 0 -87 -32 -187 -71 -170 -67 -183 -71 -195
-54 -14 18 -10 18 -151 -2 -36 -5 -43 -3 -43 11 0 41 144 155 167 132 4 -4 0
-21 -10 -38 -10 -17 -16 -32 -14 -35 9 -9 35 10 46 33 16 36 14 52 -9 64 -31
17 -102 -20 -179 -93 -71 -66 -522 -420 -528 -413 -2 2 33 54 77 116 109 152
180 269 180 297 0 50 -97 35 -211 -32 -30 -18 -73 -38 -95 -45 -82 -28 -269
-5 -269 32 0 44 -24 33 -150 -67 -169 -135 -322 -232 -403 -256 -37 -11 -45
-10 -59 4 -14 14 -15 23 -5 67 24 105 48 140 143 215 49 39 151 127 227 196
133 123 137 126 140 97 l3 -29 82 3 82 3 3 120 c3 114 4 121 29 148 l27 28 76
-148 75 -148 93 -3 92 -3 0 381 0 380 -80 0 -80 0 0 -33 c0 -29 -7 -37 -69
-78 l-69 -45 -38 78 -38 78 -93 0 -93 0 0 -209 0 -210 -92 -111 c-62 -75 -94
-107 -99 -98 -3 7 -39 151 -80 321 l-73 307 -122 0 -122 0 -20 -82z m1008 -66
c0 -37 -49 -132 -68 -132 -10 0 -58 98 -51 104 28 24 95 66 106 66 8 0 13 -13
13 -38z m-840 -176 c27 -132 28 -126 -25 -126 -53 0 -53 1 -30 112 22 107 26
121 30 116 3 -2 14 -48 25 -102z m840 -18 l-1 -83 -24 45 c-13 25 -24 51 -25
58 0 16 30 62 41 62 5 0 9 -37 9 -82z m-206 -109 c-25 -28 -34 -14 -34 54 l1
62 25 -48 c24 -46 24 -50 8 -68z m-291 -298 c-128 -123 -303 -274 -310 -267
-3 3 32 62 78 131 l84 125 41 0 42 0 -10 39 c-11 44 -10 45 117 195 l50 60 3
-95 3 -94 -98 -94z m748 -204 c-26 -33 -272 -197 -293 -197 -4 0 -8 9 -8 19 0
29 101 115 181 155 73 36 143 50 120 23z m-633 -189 c-27 -49 -52 -68 -69 -51
-19 19 1 73 45 121 l41 45 3 -37 c2 -24 -5 -50 -20 -78z m1052 27 c0 -12 -104
-85 -121 -85 -33 0 -21 15 43 53 60 35 78 43 78 32z m-860 -460 c0 -14 -260
-312 -333 -383 -115 -109 -207 -152 -207 -97 0 33 139 164 413 388 112 93 127
103 127 92z"/>
<path d="M2575 2109 c-3 -8 -4 -178 -3 -379 l3 -365 124 -3 c228 -5 329 23
382 107 40 62 49 98 56 221 13 241 -44 369 -183 410 -21 6 -114 14 -206 17
-138 5 -168 3 -173 -8z m310 -163 c57 -24 70 -62 70 -206 0 -100 -4 -131 -18
-157 -23 -43 -64 -63 -132 -63 l-55 0 0 220 0 220 50 0 c28 0 66 -6 85 -14z"/>
<path d="M3325 2107 c-3 -6 -4 -176 -3 -377 l3 -365 233 -3 232 -2 0 80 0 80
-145 0 -145 0 0 75 0 75 125 0 125 0 0 75 0 74 -122 3 -123 3 -3 68 -3 67 146
0 145 0 0 80 0 80 -230 0 c-176 0 -232 -3 -235 -13z"/>
<path d="M3985 2109 c-3 -8 -4 -178 -3 -379 l3 -365 88 -3 87 -3 0 131 0 131
32 -3 c30 -3 33 -7 79 -128 l47 -125 97 -3 c84 -2 97 -1 92 12 -4 9 -29 72
-57 140 l-52 125 45 43 c53 51 67 92 67 198 0 88 -21 142 -69 183 -47 39 -89
48 -278 54 -143 5 -173 3 -178 -8z m325 -169 c15 -15 20 -33 20 -70 0 -72 -21
-90 -105 -90 l-65 0 0 90 0 90 65 0 c52 0 69 -4 85 -20z"/>
</g>
</svg>
