<?xml version="1.0" standalone="no"?>
<!DOCTYPE svg PUBLIC "-//W3C//DTD SVG 20010904//EN"
 "http://www.w3.org/TR/2001/REC-SVG-20010904/DTD/svg10.dtd">
<svg version="1.0" xmlns="http://www.w3.org/2000/svg"
 width="512.000000pt" height="512.000000pt" viewBox="0 0 512.000000 512.000000"
 preserveAspectRatio="xMidYMid meet">

<g transform="translate(0.000000,512.000000) scale(0.100000,-0.100000)"
fill="#73737D" stroke="none">
<path d="M1010 5102 c-63 -32 -75 -68 -75 -227 0 -122 3 -144 20 -173 26 -43
88 -72 153 -72 l52 0 0 -295 0 -295 -270 0 c-155 0 -291 -5 -322 -11 -160 -33
-321 -156 -392 -300 -68 -138 -66 -98 -66 -1277 l0 -1063 25 -24 c31 -32 74
-33 103 -2 19 20 22 35 22 113 l0 89 1164 1164 1164 1164 47 -12 c123 -31 233
-119 288 -230 l32 -66 3 -354 3 -355 -1168 -1168 -1168 -1169 -35 6 c-58 11
-137 54 -193 105 -93 85 -137 197 -137 347 0 70 -3 86 -20 103 -33 33 -75 30
-107 -6 -20 -22 -23 -36 -23 -102 1 -224 107 -423 282 -525 l64 -37 11 -74
c21 -148 93 -250 221 -313 72 -36 81 -38 171 -38 87 0 102 3 162 31 119 57
212 177 226 295 l6 49 358 0 358 0 11 -57 c32 -155 150 -278 302 -313 167 -38
348 45 430 197 26 48 33 52 48 23 15 -28 117 -98 162 -112 32 -9 38 -15 38
-38 0 -15 8 -38 19 -51 38 -48 131 -18 131 42 0 18 21 19 720 19 l720 0 6 -25
c7 -29 48 -65 74 -65 31 0 70 39 70 70 0 25 7 32 65 58 207 97 289 312 214
557 -20 66 -470 940 -511 994 -30 39 -80 71 -120 78 l-38 6 0 126 c0 85 -5
145 -15 178 -34 113 -133 208 -250 238 -76 19 -336 20 -416 1 -114 -26 -209
-108 -250 -215 -17 -44 -22 -86 -27 -193 -4 -127 -6 -138 -24 -138 -30 0 -93
-36 -122 -71 -15 -18 -42 -59 -59 -93 l-32 -61 -5 1030 c-6 1149 0 1066 -77
1193 -72 117 -180 207 -306 253 -58 21 -84 23 -362 28 l-300 6 -3 291 -2 291
70 5 c77 6 111 23 141 71 18 29 19 47 17 184 -3 146 -4 152 -28 178 -45 48
-70 55 -203 55 -116 0 -125 -1 -145 -23 -31 -33 -29 -80 4 -106 23 -18 41 -21
125 -21 l99 0 0 -95 0 -95 -527 2 -528 3 -3 93 -3 92 265 0 c285 0 308 4 324
50 11 32 -7 84 -33 94 -9 3 -146 6 -303 6 -253 0 -291 -2 -322 -18z m908 -764
l-3 -293 -302 -3 -303 -2 0 295 0 295 305 0 305 0 -2 -292z m187 -718 l-269
-269 -12 45 c-42 165 -247 219 -367 96 -61 -62 -67 -94 -67 -356 l0 -231 -165
-165 -165 -165 0 406 0 407 -28 53 c-53 102 -174 146 -278 100 -64 -29 -82
-46 -110 -106 l-24 -50 0 -625 0 -625 -180 -180 -180 -180 2 895 3 895 23 55
c52 122 148 212 269 250 55 18 107 19 938 19 l880 1 -270 -270z m-1215 -230
c19 -19 20 -33 20 -493 l0 -473 -70 -69 -70 -69 0 542 c0 529 0 542 20 562 11
11 33 20 50 20 17 0 39 -9 50 -20z m768 4 c20 -14 22 -23 22 -107 l0 -93 -70
-69 -70 -69 0 150 c0 138 2 154 21 178 24 30 63 34 97 10z m1172 -2404 c-94
-179 -136 -269 -150 -325 -11 -43 -20 -86 -20 -96 0 -9 -8 -21 -17 -25 -23
-11 -1803 -18 -1803 -7 0 5 128 136 284 292 l283 283 22 -35 c36 -59 93 -91
171 -95 75 -5 124 14 172 65 52 54 58 85 58 295 l0 193 162 162 c90 90 167
163 171 163 5 0 7 -161 6 -357 -3 -349 -3 -359 18 -398 47 -89 116 -129 213
-123 82 4 137 38 178 107 l27 46 3 590 3 590 172 173 172 172 3 -711 2 -712
-130 -247z m1227 1151 c24 -14 55 -42 70 -64 27 -38 28 -47 31 -173 l4 -132
-131 -4 c-119 -3 -132 -5 -152 -25 -27 -27 -29 -75 -4 -103 16 -18 33 -20 219
-22 l201 -3 3 -285 2 -284 -97 -98 c-77 -77 -104 -98 -125 -98 -26 0 -28 3
-28 43 0 54 -30 104 -75 123 -47 19 -265 20 -303 0 -46 -24 -66 -54 -72 -109
l-5 -52 -75 -3 c-85 -3 -112 1 -134 24 -14 13 -16 62 -16 380 l0 364 120 0
c110 0 121 2 140 22 53 57 4 128 -90 128 l-40 0 0 101 c0 128 13 179 59 230
55 62 89 69 286 66 159 -2 173 -4 212 -26z m-1602 -958 c-13 -54 -84 -73 -121
-32 -18 20 -19 44 -22 442 l-3 421 73 73 73 74 3 -478 c1 -263 0 -488 -3 -500z
m798 -375 c18 -31 44 -57 75 -75 42 -25 58 -28 160 -32 l112 -3 0 -40 c0 -77
43 -123 126 -135 l46 -6 -139 -139 -138 -139 -250 3 c-281 3 -292 6 -368 84
-55 57 -70 106 -65 211 5 107 -1 94 226 527 l177 339 5 -274 5 -274 28 -47z
m1267 461 c0 -3 -16 -20 -35 -39 l-35 -34 0 100 1 99 34 -60 c19 -33 35 -62
35 -66z m-2856 -120 c-17 -19 -69 -25 -90 -11 -18 12 -34 49 -34 79 0 21 17
44 68 96 l67 68 3 -107 c2 -89 0 -110 -14 -125z m2794 -616 l-293 -293 -230 0
-230 0 444 444 445 445 79 -151 79 -151 -294 -294z m-558 242 l0 -106 -77 3
-78 3 -3 103 -3 102 81 0 80 0 0 -105z m956 -229 c10 -94 -14 -165 -75 -226
-65 -65 -117 -80 -275 -80 l-121 0 220 220 220 220 12 -36 c7 -20 16 -64 19
-98z m-4082 -183 c21 -37 47 -53 86 -53 33 0 44 6 67 35 27 34 30 35 101 35
68 0 72 -1 72 -22 -1 -37 -35 -102 -75 -141 -99 -96 -276 -83 -361 28 -22 30
-54 110 -54 137 0 16 154 -2 164 -19z m1836 0 c-1 -76 -90 -179 -175 -203 -92
-26 -204 10 -259 83 -23 30 -56 106 -56 128 0 5 36 9 80 9 49 0 80 -4 80 -10
0 -26 50 -60 86 -60 39 0 84 31 84 56 0 12 11 14 133 22 23 2 27 -2 27 -25z"/>
<path d="M1983 2998 c-56 -57 -105 -114 -108 -128 -4 -18 0 -34 15 -53 28 -36
78 -37 117 -3 l28 25 141 -140 c77 -76 148 -139 157 -139 54 0 97 55 78 101
-5 13 -68 82 -140 153 l-130 130 25 29 c47 55 22 127 -44 127 -34 0 -46 -9
-139 -102z"/>
<path d="M1718 2693 c-134 -45 -204 -183 -145 -288 23 -42 91 -85 134 -85 12
0 67 18 120 40 80 32 100 37 111 26 32 -32 -29 -88 -110 -101 -67 -10 -96 -66
-61 -113 47 -64 217 -21 284 70 55 77 61 163 16 230 -55 80 -146 91 -277 34
-44 -20 -83 -36 -85 -36 -3 0 -5 8 -5 18 0 26 29 49 83 68 77 26 100 82 52
129 -28 29 -51 30 -117 8z"/>
<path d="M1310 2271 c-197 -65 -278 -275 -170 -444 15 -25 49 -59 73 -76 199
-136 460 -4 461 234 0 161 -115 283 -274 291 -36 2 -76 0 -90 -5z m134 -155
c72 -30 103 -115 67 -188 -68 -142 -284 -85 -268 71 11 99 108 156 201 117z"/>
<path d="M773 1785 c-28 -20 -37 -59 -19 -93 17 -32 311 -324 343 -341 37 -19
68 -3 142 74 79 81 88 109 46 150 -34 35 -68 32 -115 -12 l-41 -36 -138 136
c-146 146 -167 157 -218 122z"/>
</g>
</svg>
