<?xml version="1.0" encoding="UTF-8"?>
<svg xmlns="http://www.w3.org/2000/svg" xmlns:xlink="http://www.w3.org/1999/xlink" viewBox="0 0 50 50" width="50px" height="50px">
<g id="surface21812203">
<path style=" stroke:none;fill-rule:nonzero;fill:#ECB390;fill-opacity:1;" d="M 47.230469 0.429688 L 2.769531 0.429688 C 1.492188 0.429688 0.429688 1.492188 0.429688 2.769531 L 0.429688 47.230469 C 0.429688 48.507812 1.492188 49.570312 2.769531 49.570312 L 47.230469 49.570312 C 48.507812 49.570312 49.570312 48.507812 49.570312 47.230469 L 49.570312 2.769531 C 49.570312 1.492188 48.507812 0.429688 47.230469 0.429688 Z M 2.769531 2.769531 L 47.230469 2.769531 L 47.230469 25 L 26.144531 25 C 24.851562 25 23.804688 26.050781 23.804688 27.339844 L 23.804688 47.230469 L 2.769531 47.230469 Z M 45.441406 27.339844 L 26.144531 45.675781 L 26.144531 27.339844 Z M 27.902344 47.230469 L 47.230469 28.867188 L 47.230469 47.230469 Z M 27.902344 47.230469 "/>
</g>
</svg>
