<?xml version="1.0" standalone="no"?>
<!DOCTYPE svg PUBLIC "-//W3C//DTD SVG 20010904//EN"
 "http://www.w3.org/TR/2001/REC-SVG-20010904/DTD/svg10.dtd">
<svg version="1.0" xmlns="http://www.w3.org/2000/svg"
 width="512.000000pt" height="512.000000pt" viewBox="0 0 512.000000 512.000000"
 preserveAspectRatio="xMidYMid meet">

<g transform="translate(0.000000,512.000000) scale(0.100000,-0.100000)"
fill="#73737D" stroke="none">
<path d="M4055 4485 c-110 -33 -972 -281 -2990 -861 -429 -124 -803 -236 -831
-249 -105 -51 -194 -169 -224 -294 -17 -74 -8 -156 33 -292 52 -169 78 -315
85 -477 8 -164 8 -165 94 -176 65 -9 109 -27 159 -67 45 -36 94 -112 85 -135
-3 -8 -27 -24 -53 -36 -93 -40 -99 -59 -59 -198 17 -57 22 -88 15 -96 -17 -21
-74 -43 -145 -58 -42 -9 -73 -22 -82 -33 -10 -14 -12 -77 -10 -308 l3 -290 32
-68 c42 -89 121 -168 210 -210 l68 -32 556 -3 c548 -3 556 -2 574 18 28 31 24
79 -9 107 l-27 23 -522 0 c-503 0 -524 1 -567 21 -55 25 -114 80 -143 134 -20
37 -22 57 -25 266 l-3 226 58 20 c32 11 65 24 74 27 13 6 19 -3 29 -41 25 -93
67 -167 129 -227 67 -63 138 -99 230 -116 75 -13 121 -7 271 35 203 59 954
275 2203 634 670 193 1219 351 1222 351 2 0 -7 -24 -20 -52 -112 -249 19 -536
283 -618 l57 -18 0 -213 c-1 -195 -3 -218 -21 -260 -29 -63 -76 -113 -132
-141 l-47 -23 -1383 -5 -1384 -5 -19 -24 c-25 -30 -24 -76 1 -101 20 -20 33
-20 1403 -20 1333 0 1386 1 1439 19 74 25 124 58 180 118 104 112 120 182 116
514 -3 216 -5 251 -20 265 -9 9 -51 23 -93 30 -177 31 -274 148 -263 318 5 79
22 118 75 177 48 53 100 78 191 94 85 15 100 26 109 80 4 25 23 60 54 98 70
87 94 160 93 277 -1 87 -7 115 -72 329 -50 167 -75 237 -88 245 -11 6 -68 11
-134 11 -130 0 -164 12 -232 81 -61 61 -83 116 -83 209 0 67 5 88 27 131 34
64 85 109 166 146 94 43 94 42 23 288 -33 114 -70 228 -82 254 -36 78 -111
151 -196 193 -69 34 -84 38 -172 40 -86 3 -109 -1 -216 -32z m324 -146 c105
-52 118 -78 210 -400 l19 -66 -63 -42 c-156 -102 -230 -303 -180 -487 33 -123
123 -229 240 -285 57 -27 171 -50 225 -46 24 2 27 -5 78 -178 76 -254 74 -335
-9 -430 -18 -20 -50 -46 -73 -59 -22 -13 -295 -97 -606 -186 -311 -90 -571
-165 -578 -167 -7 -3 -17 8 -23 26 -13 36 -35 51 -77 51 -41 0 -67 -33 -67
-83 l0 -41 -99 -29 c-54 -15 -100 -26 -102 -24 -2 2 -35 113 -74 248 -38 134
-74 254 -79 265 -21 47 -53 46 -256 -12 -105 -30 -207 -59 -227 -64 -43 -12
-78 -45 -78 -72 0 -11 32 -129 70 -263 66 -231 77 -275 65 -275 -3 0 -398
-113 -877 -252 -948 -274 -973 -279 -1059 -241 -59 26 -104 66 -133 117 -13
22 -47 126 -77 230 l-54 189 25 15 c46 29 145 136 167 182 28 57 53 153 53
201 0 58 -18 138 -45 196 -28 63 -112 155 -173 190 -61 36 -155 63 -217 63
-43 0 -55 4 -59 18 -3 9 -24 82 -48 162 -52 178 -55 248 -15 326 28 55 83 109
131 129 17 7 339 102 716 210 377 108 949 273 1272 366 324 93 590 169 593
169 3 0 5 -6 5 -14 0 -7 9 -25 21 -40 46 -58 134 -17 127 60 l-3 39 575 166
c653 190 655 190 759 138z m-3958 -1912 c106 -54 166 -155 163 -275 -1 -29 -4
-55 -7 -58 -3 -3 -26 17 -52 45 -57 61 -122 104 -192 126 l-53 17 0 89 0 89
39 0 c25 0 63 -12 102 -33z m2642 -360 c32 -111 58 -207 57 -213 0 -10 -257
-90 -265 -82 -4 4 -124 422 -122 424 5 5 244 73 257 73 11 1 30 -52 73 -202z"/>
<path d="M3701 4056 c-342 -99 -387 -115 -405 -139 l-20 -27 48 -169 c28 -98
56 -178 67 -190 12 -12 32 -21 49 -21 26 0 599 160 758 211 65 22 82 39 82 86
0 43 -86 322 -106 344 -11 12 -29 19 -53 18 -20 0 -209 -51 -420 -113z m391
-121 c10 -33 18 -65 18 -71 0 -10 -607 -191 -614 -183 -9 8 -40 139 -35 144 9
8 583 173 598 172 9 -1 22 -27 33 -62z"/>
<path d="M3023 3684 c-31 -31 -29 -54 19 -200 28 -84 37 -101 61 -112 38 -18
81 -1 97 38 17 40 -40 244 -76 278 -33 29 -69 28 -101 -4z"/>
<path d="M1540 3340 c-138 -39 -170 -58 -170 -102 0 -28 10 -45 157 -251 74
-104 136 -194 139 -200 2 -8 -96 -46 -279 -109 l-282 -96 -134 34 c-112 30
-138 34 -161 24 -26 -11 -50 -46 -50 -73 0 -7 49 -96 108 -197 127 -218 125
-216 235 -180 74 25 678 169 687 164 3 -1 -1 -119 -9 -262 -19 -351 -24 -345
212 -277 67 19 127 41 135 48 7 8 48 148 91 313 l77 299 123 33 c139 36 173
54 229 117 42 48 98 154 108 204 6 28 2 37 -39 76 -64 61 -164 107 -248 113
-58 4 -81 0 -178 -33 -61 -20 -117 -35 -125 -33 -8 2 -110 93 -226 203 -116
110 -224 205 -238 211 -23 10 -48 6 -162 -26z m286 -286 c90 -86 164 -160 164
-163 0 -4 -33 -18 -72 -30 -40 -13 -78 -25 -83 -28 -10 -3 -257 337 -257 354
1 9 35 20 66 22 11 1 84 -62 182 -155z m685 -199 c24 -9 53 -22 63 -30 19 -14
18 -16 -17 -67 -20 -29 -45 -59 -56 -65 -26 -17 -195 -58 -816 -203 -286 -66
-542 -128 -568 -136 -54 -18 -53 -19 -93 50 l-28 49 25 -6 c89 -25 80 -28 630
161 871 299 783 273 860 247z m-440 -643 c-32 -123 -62 -227 -67 -232 -5 -5
-25 -13 -43 -16 l-34 -7 7 144 c3 79 9 178 13 220 l6 76 86 20 c47 11 87 19
88 19 1 -1 -24 -102 -56 -224z"/>
<path d="M3180 3140 c-22 -22 -25 -60 -11 -106 6 -16 19 -62 31 -102 22 -76
49 -112 86 -112 36 0 54 10 69 40 13 25 12 38 -17 139 -17 61 -39 123 -50 136
-25 32 -79 34 -108 5z"/>
<path d="M4300 2809 c-214 -62 -240 -76 -240 -126 0 -36 16 -60 48 -71 27 -9
124 14 400 97 109 33 138 75 91 135 -29 37 -61 34 -299 -35z"/>
<path d="M3346 2599 c-34 -27 -34 -60 3 -185 34 -112 64 -150 110 -139 53 12
73 64 52 131 -6 16 -19 62 -31 102 -31 107 -75 137 -134 91z"/>
<path d="M4380 2548 c-113 -33 -211 -65 -219 -71 -39 -32 -32 -93 14 -123 25
-16 33 -15 246 46 121 35 231 72 245 82 52 42 19 129 -48 127 -18 0 -125 -28
-238 -61z"/>
<path d="M1152 1731 c-162 -48 -299 -94 -309 -103 -43 -44 6 -137 66 -123 128
30 599 173 617 188 51 40 15 128 -52 126 -16 -1 -161 -40 -322 -88z"/>
<path d="M3503 1336 l-28 -24 0 -177 0 -177 28 -24 28 -24 439 0 439 0 28 24
28 24 0 177 0 177 -28 24 -28 24 -439 0 -439 0 -28 -24z m807 -201 l0 -75
-340 0 -340 0 0 75 0 75 340 0 340 0 0 -75z"/>
<path d="M2340 1217 c-38 -19 -54 -60 -38 -94 25 -53 29 -53 486 -51 l424 3
19 24 c26 31 25 83 -2 107 -20 18 -44 19 -443 22 -327 1 -427 -1 -446 -11z"/>
</g>
</svg>
